<svg width="36" height="36" viewBox="0 0 36 36" fill="none" xmlns="http://www.w3.org/2000/svg">
<path fill-rule="evenodd" clip-rule="evenodd" d="M18 36C27.941 36 36 27.941 36 18C36 8.059 27.941 0 18 0C8.059 0 0 8.059 0 18C0 27.941 8.059 36 18 36ZM15.553 18.892V28.175H19.29V18.892H22.406L22.873 15.275H19.29V12.965C19.29 11.917 19.58 11.204 21.083 11.204L22.999 11.203V7.967C22.668 7.923 21.53 7.825 20.207 7.825C17.444 7.825 15.553 9.511 15.553 12.607V15.275H12.428V18.892H15.553Z" fill="#FF852E"/>
</svg>
