<svg width="36" height="36" viewBox="0 0 36 36" fill="none" xmlns="http://www.w3.org/2000/svg">
<path fill-rule="evenodd" clip-rule="evenodd" d="M18 36C27.941 36 36 27.941 36 18C36 8.059 27.941 0 18 0C8.059 0 0 8.059 0 18C0 27.941 8.059 36 18 36ZM18 14.625C19.875 14.625 21.375 16.125 21.375 18C21.375 19.875 19.875 21.375 18 21.375C17.5563 21.3769 17.1166 21.2908 16.7063 21.1219C16.2959 20.9529 15.9232 20.7044 15.6094 20.3906C15.2956 20.0768 15.0471 19.7041 14.8781 19.2937C14.7092 18.8834 14.6231 18.4437 14.625 18C14.625 16.125 16.125 14.625 18 14.625ZM18 23.125C20.875 23.125 23.125 20.875 23.125 18C23.125 15.125 20.875 12.875 18 12.875C15.125 12.875 12.875 15.125 12.875 18C12.875 20.875 15.125 23.125 18 23.125ZM23.25 13.875C24 13.875 24.5 13.375 24.5 12.625C24.5 12 24 11.375 23.25 11.375C22.5 11.375 22 11.875 22 12.625C22 13.375 22.5 13.875 23.25 13.875ZM17.222 9.744C17.51 9.747 17.774 9.75 18 9.75C18.195 9.75 18.418 9.748 18.66 9.746C20.282 9.73 22.788 9.706 23.875 10.25C24.75 10.5 25.5 11.25 25.75 12.125C26.176 13.191 26.148 15.711 26.13 17.283C26.128 17.554 26.125 17.797 26.125 18C26.125 18.204 26.128 18.445 26.131 18.715C26.148 20.262 26.176 22.704 25.75 23.875C25.375 24.75 24.75 25.375 23.875 25.75C22.809 26.176 20.289 26.148 18.717 26.13C18.446 26.128 18.203 26.125 18 26.125C17.797 26.125 17.554 26.128 17.283 26.131C15.711 26.148 13.191 26.176 12.125 25.75C11.25 25.5 10.5 24.75 10.25 23.875C9.825 22.814 9.852 20.4 9.869 18.778C9.872 18.49 9.875 18.226 9.875 18C9.875 17.774 9.872 17.51 9.869 17.222C9.852 15.6 9.825 13.186 10.25 12.125C10.5 11.25 11.25 10.5 12.125 10.125C13.186 9.7 15.6 9.727 17.222 9.744ZM28 22.125V13.875C27.9963 12.3073 27.4182 10.7953 26.375 9.625C25.2122 8.5696 23.6953 7.98961 22.125 8H13.875C12.375 8 10.875 8.625 9.625 9.625C8.58184 10.7953 8.00372 12.3073 8 13.875V22.125C8.00372 23.6927 8.58184 25.2047 9.625 26.375C10.7878 27.4304 12.3047 28.0104 13.875 28H22.125C23.75 28 25.25 27.5 26.375 26.375C27.4304 25.2122 28.0104 23.6953 28 22.125Z" fill="#FF852E"/>
</svg>
