<svg width="36" height="36" viewBox="0 0 36 36" fill="none" xmlns="http://www.w3.org/2000/svg">
<path fill-rule="evenodd" clip-rule="evenodd" d="M18 36C27.941 36 36 27.941 36 18C36 8.059 27.941 0 18 0C8.059 0 0 8.059 0 18C0 27.941 8.059 36 18 36ZM15.546 24.31C15.268 25.38 14.516 26.724 14.013 27.543C14.013 27.543 13.674 28.091 13.408 27.987C13.142 27.883 13.17 27.244 13.17 27.244C13.062 26.268 12.964 24.772 13.213 23.707C13.437 22.744 14.659 17.577 14.659 17.577C14.659 17.577 14.29 16.837 14.29 15.745C14.29 14.03 15.284 12.75 16.523 12.75C17.575 12.75 18.083 13.54 18.083 14.487C18.083 15.162 17.809 16.051 17.52 16.987C17.356 17.517 17.187 18.063 17.061 18.594C16.771 19.821 17.677 20.822 18.889 20.822C21.081 20.822 22.767 18.511 22.767 15.175C22.767 12.222 20.644 10.157 17.613 10.157C14.103 10.157 12.043 12.789 12.043 15.509C12.043 16.569 12.451 17.706 12.961 18.324C13.061 18.446 13.077 18.553 13.047 18.677L12.834 19.547L12.704 20.077C12.65 20.302 12.525 20.35 12.291 20.241C10.751 19.524 9.787 17.272 9.787 15.463C9.787 11.573 12.615 8 17.94 8C22.22 8 25.545 11.049 25.545 15.123C25.545 19.373 22.865 22.794 19.143 22.794C17.893 22.794 16.718 22.144 16.316 21.378C16.316 21.378 15.697 23.733 15.547 24.31H15.546Z" fill="#FF852E"/>
</svg>
