<svg width="36" height="36" viewBox="0 0 36 36" fill="none" xmlns="http://www.w3.org/2000/svg">
<path fill-rule="evenodd" clip-rule="evenodd" d="M18 36C27.941 36 36 27.941 36 18C36 8.059 27.941 0 18 0C8.059 0 0 8.059 0 18C0 27.941 8.059 36 18 36ZM23.872 11.39C24.7516 12.1114 25.8534 12.5067 26.991 12.509L27 12.508V16.084C25.8588 16.0851 24.7306 15.841 23.692 15.368C23.016 15.0611 22.3841 14.6653 21.813 14.191L21.831 22.22C21.824 24.028 21.158 25.726 19.952 27.006C18.971 28.047 17.728 28.709 16.38 28.924C15.5147 29.0616 14.6299 29.0123 13.7853 28.7794C12.9406 28.5466 12.1556 28.1356 11.483 27.574C11.2701 27.3974 11.0684 27.2077 10.879 27.006C9.573 25.62 8.9 23.74 9.012 21.763C9.09334 20.274 9.64793 18.8499 10.595 17.698C11.833 16.209 13.565 15.383 15.415 15.383C15.741 15.383 16.063 15.409 16.38 15.46V19.106C16.0734 18.9972 15.7504 18.9418 15.425 18.942C13.735 18.942 12.365 20.423 12.391 22.241C12.407 23.403 12.999 24.421 13.871 24.981C14.2383 25.22 14.6557 25.3711 15.0909 25.4224C15.5261 25.4738 15.9672 25.424 16.38 25.277C17.588 24.847 18.46 23.629 18.46 22.192L18.464 16.815V7H21.809C21.813 7.356 21.846 7.703 21.909 8.04C22.162 9.402 22.877 10.584 23.872 11.39Z" fill="#FF852E"/>
</svg>
